<!--?xml version="1.0" standalone="no"?-->
              <svg id="sw-js-blob-svg" viewBox="0 0 100 100" xmlns="http://www.w3.org/2000/svg" version="1.1">
                    <defs> 
                        <linearGradient id="sw-gradient" x1="0" x2="1" y1="1" y2="0">
                            <stop id="stop1" stop-color="rgba(55, 16, 214, 1)" offset="0%"></stop>
                            <stop id="stop2" stop-color="rgba(208, 47, 112, 1)" offset="100%"></stop>
                        </linearGradient>
                    </defs>
                <path fill="none" d="M6,-5.7C10.1,-3.7,17.3,-4,20.4,-1.4C23.4,1.2,22.3,6.7,19.5,10.9C16.6,15.1,12.1,18,7.5,19.1C2.8,20.2,-2,19.5,-8,18.7C-14,17.9,-21.2,17.2,-24,13.3C-26.7,9.5,-25.1,2.7,-23.1,-3.3C-21.2,-9.3,-18.9,-14.5,-14.9,-16.5C-11,-18.5,-5.5,-17.3,-2.3,-14.6C1,-11.9,1.9,-7.7,6,-5.7Z" width="100%" height="100%" transform="translate(50 50)" stroke-width="1" style="transition: all 0.3s ease 0s;" stroke="url(#sw-gradient)"></path>
              </svg>